<?xml version="1.0" encoding="UTF-8"?>
<svg width="600" height="400" viewBox="0 0 600 400" xmlns="http://www.w3.org/2000/svg">
  <style>
    @keyframes pulse {
      0% { transform: scale(1); opacity: 0.7; }
      50% { transform: scale(1.1); opacity: 1; }
      100% { transform: scale(1); opacity: 0.7; }
    }
    
    @keyframes move {
      0% { transform: translateY(0); }
      50% { transform: translateY(-10px); }
      100% { transform: translateY(0); }
    }
    
    @keyframes dash {
      to { stroke-dashoffset: -20; }
    }
    
    .pulse {
      animation: pulse 3s infinite ease-in-out;
    }
    
    .move {
      animation: move 4s infinite ease-in-out;
    }
    
    .connection {
      stroke-dasharray: 5;
      animation: dash 1s linear infinite;
    }
    
    .event-pin {
      transform-origin: bottom center;
    }
  </style>
  
  <!-- Background -->
  <rect x="0" y="0" width="600" height="400" fill="#f0f5ff" opacity="0.3"/>
  
  <!-- City map background -->
  <g opacity="0.2">
    <path d="M0,200 L600,200" stroke="#1890ff" stroke-width="1"/>
    <path d="M0,250 L600,250" stroke="#1890ff" stroke-width="1"/>
    <path d="M0,300 L600,300" stroke="#1890ff" stroke-width="1"/>
    <path d="M0,350 L600,350" stroke="#1890ff" stroke-width="1"/>
    <path d="M0,150 L600,150" stroke="#1890ff" stroke-width="1"/>
    <path d="M0,100 L600,100" stroke="#1890ff" stroke-width="1"/>
    <path d="M0,50 L600,50" stroke="#1890ff" stroke-width="1"/>
    
    <path d="M100,0 L100,400" stroke="#1890ff" stroke-width="1"/>
    <path d="M200,0 L200,400" stroke="#1890ff" stroke-width="1"/>
    <path d="M300,0 L300,400" stroke="#1890ff" stroke-width="1"/>
    <path d="M400,0 L400,400" stroke="#1890ff" stroke-width="1"/>
    <path d="M500,0 L500,400" stroke="#1890ff" stroke-width="1"/>
  </g>
  
  <!-- Event locations -->
  <g>
    <!-- Event 1 -->
    <g class="event-pin pulse" transform="translate(150, 150)">
      <path d="M0,0 c0,-30 50,-30 50,0 c0,30 -25,40 -25,40 c0,0 -25,-10 -25,-40" fill="#f5222d"/>
      <circle cx="25" cy="-10" r="10" fill="white"/>
      <text x="25" y="-7" text-anchor="middle" font-size="12" fill="#f5222d">1</text>
    </g>
    
    <!-- Event 2 -->
    <g class="event-pin pulse" transform="translate(400, 180)" style="animation-delay: 1s;">
      <path d="M0,0 c0,-30 50,-30 50,0 c0,30 -25,40 -25,40 c0,0 -25,-10 -25,-40" fill="#faad14"/>
      <circle cx="25" cy="-10" r="10" fill="white"/>
      <text x="25" y="-7" text-anchor="middle" font-size="12" fill="#faad14">2</text>
    </g>
    
    <!-- Event 3 -->
    <g class="event-pin pulse" transform="translate(250, 300)" style="animation-delay: 2s;">
      <path d="M0,0 c0,-30 50,-30 50,0 c0,30 -25,40 -25,40 c0,0 -25,-10 -25,-40" fill="#52c41a"/>
      <circle cx="25" cy="-10" r="10" fill="white"/>
      <text x="25" y="-7" text-anchor="middle" font-size="12" fill="#52c41a">3</text>
    </g>
  </g>
  
  <!-- People -->
  <g>
    <!-- Person 1 -->
    <g class="move" transform="translate(100, 100)">
      <circle cx="0" cy="0" r="20" fill="#1890ff"/>
      <circle cx="0" cy="-5" r="7" fill="white"/>
      <path d="M-8,0 Q0,15 8,0" stroke="white" stroke-width="2" fill="none"/>
    </g>
    
    <!-- Person 2 -->
    <g class="move" transform="translate(300, 120)" style="animation-delay: 1.5s;">
      <circle cx="0" cy="0" r="20" fill="#52c41a"/>
      <circle cx="0" cy="-5" r="7" fill="white"/>
      <path d="M-8,0 Q0,15 8,0" stroke="white" stroke-width="2" fill="none"/>
    </g>
    
    <!-- Person 3 -->
    <g class="move" transform="translate(450, 250)" style="animation-delay: 0.7s;">
      <circle cx="0" cy="0" r="20" fill="#faad14"/>
      <circle cx="0" cy="-5" r="7" fill="white"/>
      <path d="M-8,0 Q0,15 8,0" stroke="white" stroke-width="2" fill="none"/>
    </g>
    
    <!-- Person 4 -->
    <g class="move" transform="translate(200, 220)" style="animation-delay: 2s;">
      <circle cx="0" cy="0" r="20" fill="#722ed1"/>
      <circle cx="0" cy="-5" r="7" fill="white"/>
      <path d="M-8,0 Q0,15 8,0" stroke="white" stroke-width="2" fill="none"/>
    </g>
  </g>
  
  <!-- Connections -->
  <g>
    <path class="connection" d="M100,100 C150,80 150,130 175,150" stroke="#1890ff" stroke-width="2" fill="none"/>
    <path class="connection" d="M300,120 C350,150 380,170 425,180" stroke="#52c41a" stroke-width="2" fill="none"/>
    <path class="connection" d="M450,250 C400,280 330,300 275,300" stroke="#faad14" stroke-width="2" fill="none"/>
    <path class="connection" d="M200,220 C220,260 230,280 275,300" stroke="#722ed1" stroke-width="2" fill="none"/>
    <path class="connection" d="M100,100 C180,120 250,100 300,120" stroke="#1890ff" stroke-width="2" fill="none" style="animation-delay: 0.5s;"/>
  </g>
  
  <!-- Chat bubbles -->
  <g>
    <g class="pulse" transform="translate(130, 70)" style="animation-delay: 1s;">
      <path d="M0,0 L40,0 Q50,0 50,10 L50,30 Q50,40 40,40 L10,40 L0,50 L0,0 Z" fill="#1890ff" opacity="0.8"/>
    </g>
    
    <g class="pulse" transform="translate(330, 90)" style="animation-delay: 2s;">
      <path d="M0,0 L40,0 Q50,0 50,10 L50,30 Q50,40 40,40 L10,40 L0,50 L0,0 Z" fill="#52c41a" opacity="0.8"/>
    </g>
    
    <g class="pulse" transform="translate(480, 220)" style="animation-delay: 1.5s;">
      <path d="M0,0 L40,0 Q50,0 50,10 L50,30 Q50,40 40,40 L10,40 L0,50 L0,0 Z" fill="#faad14" opacity="0.8"/>
    </g>
  </g>
  
  <!-- Calendar events popping -->
  <g>
    <g class="move" transform="translate(50, 300)" style="animation-delay: 0.2s;">
      <rect x="0" y="0" width="40" height="40" rx="5" fill="#1890ff"/>
      <rect x="5" y="5" width="30" height="30" rx="2" fill="white"/>
      <text x="20" y="25" text-anchor="middle" font-size="14" fill="#1890ff">15</text>
    </g>
    
    <g class="move" transform="translate(500, 100)" style="animation-delay: 1.2s;">
      <rect x="0" y="0" width="40" height="40" rx="5" fill="#52c41a"/>
      <rect x="5" y="5" width="30" height="30" rx="2" fill="white"/>
      <text x="20" y="25" text-anchor="middle" font-size="14" fill="#52c41a">23</text>
    </g>
    
    <g class="move" transform="translate(400, 350)" style="animation-delay: 0.8s;">
      <rect x="0" y="0" width="40" height="40" rx="5" fill="#faad14"/>
      <rect x="5" y="5" width="30" height="30" rx="2" fill="white"/>
      <text x="20" y="25" text-anchor="middle" font-size="14" fill="#faad14">7</text>
    </g>
  </g>
</svg> 